<svg width="348" height="435" viewBox="0 0 348 435" fill="none" xmlns="http://www.w3.org/2000/svg">
<path d="M303.456 42.3282C302.61 39.3902 301.423 36.7943 299.894 34.5405C298.364 32.2465 296.493 30.3147 294.279 28.7451C292.106 27.1352 289.611 25.9077 286.794 25.0625C284.017 24.2174 280.938 23.7948 277.557 23.7948C271.239 23.7948 265.685 25.3644 260.895 28.5036C256.146 31.6428 252.444 36.2107 249.787 42.2074C247.131 48.1639 245.803 55.4484 245.803 64.0611C245.803 72.6738 247.111 79.9986 249.727 86.0356C252.343 92.0725 256.046 96.6807 260.835 99.8601C265.624 102.999 271.279 104.569 277.799 104.569C283.715 104.569 288.766 103.523 292.951 101.43C297.177 99.2967 300.397 96.2983 302.61 92.4347C304.864 88.5711 305.991 84.0031 305.991 78.7309L311.304 79.5157H279.429V59.8353H331.165V75.4106C331.165 86.277 328.871 95.6142 324.283 103.422C319.695 111.189 313.376 117.186 305.327 121.412C297.278 125.598 288.061 127.69 277.678 127.69C266.087 127.69 255.905 125.135 247.131 120.023C238.357 114.872 231.516 107.567 226.605 98.1094C221.736 88.6113 219.301 77.3424 219.301 64.3026C219.301 54.2813 220.75 45.3466 223.647 37.4986C226.585 29.6104 230.69 22.9295 235.963 17.456C241.235 11.9825 247.373 7.81704 254.375 4.95956C261.378 2.10208 268.965 0.67334 277.135 0.67334C284.137 0.67334 290.657 1.69962 296.694 3.75218C302.731 5.76449 308.084 8.62197 312.752 12.3246C317.461 16.0273 321.305 20.4342 324.283 25.5455C327.261 30.6165 329.173 36.2107 330.018 42.3282H303.456Z" fill="#18B3E4"/>
<path d="M15.0214 126V107.165L59.0306 66.4155C62.7735 62.7934 65.9127 59.5334 68.4482 56.6357C71.024 53.738 72.9759 50.9006 74.304 48.1236C75.6321 45.3064 76.2962 42.2678 76.2962 39.0079C76.2962 35.3857 75.4712 32.2666 73.8211 29.6506C72.171 26.9944 69.9172 24.9619 67.0597 23.5533C64.2022 22.1044 60.9624 21.38 57.3402 21.38C53.5571 21.38 50.2569 22.1447 47.4397 23.6741C44.6224 25.2034 42.4491 27.3968 40.9198 30.2543C39.3904 33.1118 38.6258 36.5126 38.6258 40.4567H13.814C13.814 32.3672 15.6452 25.3443 19.3076 19.3878C22.97 13.4314 28.1014 8.8232 34.7017 5.56325C41.3021 2.30331 48.9087 0.67334 57.5214 0.67334C66.3755 0.67334 74.0827 2.24294 80.6428 5.38215C87.2432 8.48111 92.3746 12.7875 96.037 18.3012C99.6994 23.8149 101.531 30.1336 101.531 37.2572C101.531 41.9257 100.605 46.5339 98.7536 51.0817C96.9425 55.6295 93.7027 60.6804 89.0341 66.2344C84.3656 71.7482 77.7853 78.3687 69.2934 86.0959L51.2429 103.784V104.629H103.161V126H15.0214Z" fill="#DF2222"/>
<path d="M189.896 37.9212C189.413 33.0514 187.341 29.2683 183.678 26.5718C180.016 23.8753 175.045 22.527 168.767 22.527C164.501 22.527 160.899 23.1307 157.961 24.3381C155.023 25.5053 152.769 27.1352 151.199 29.228C149.67 31.3208 148.905 33.6954 148.905 36.3516C148.825 38.5652 149.288 40.497 150.294 42.1471C151.34 43.7972 152.769 45.2259 154.58 46.4333C156.391 47.6004 158.484 48.6267 160.859 49.5121C163.233 50.3573 165.769 51.0817 168.465 51.6854L179.573 54.3417C184.966 55.549 189.916 57.1589 194.424 59.1712C198.931 61.1835 202.835 63.6587 206.136 66.5966C209.436 69.5346 211.991 72.9958 213.802 76.9802C215.654 80.9645 216.6 85.5325 216.64 90.684C216.6 98.2503 214.668 104.81 210.844 110.364C207.061 115.878 201.588 120.164 194.424 123.223C187.3 126.242 178.708 127.751 168.646 127.751C158.665 127.751 149.972 126.221 142.567 123.163C135.202 120.104 129.446 115.576 125.301 109.58C121.196 103.543 119.043 96.077 118.841 87.1826H144.136C144.418 91.3279 145.605 94.7891 147.698 97.5661C149.831 100.303 152.668 102.376 156.21 103.784C159.792 105.153 163.837 105.837 168.344 105.837C172.771 105.837 176.615 105.193 179.875 103.905C183.175 102.617 185.731 100.826 187.542 98.532C189.353 96.238 190.258 93.6018 190.258 90.6236C190.258 87.8466 189.433 85.5124 187.783 83.6208C186.173 81.7292 183.799 80.1194 180.66 78.7912C177.561 77.4631 173.757 76.2557 169.25 75.1691L155.788 71.7884C145.364 69.2529 137.133 65.2886 131.096 59.8956C125.06 54.5027 122.061 47.2382 122.101 38.1023C122.061 30.6165 124.053 24.0765 128.078 18.4823C132.143 12.8881 137.717 8.52135 144.8 5.38215C151.884 2.24294 159.933 0.67334 168.948 0.67334C178.124 0.67334 186.133 2.24294 192.975 5.38215C199.857 8.52135 205.21 12.8881 209.033 18.4823C212.857 24.0765 214.829 30.5562 214.949 37.9212H189.896Z" fill="#DF2222"/>
<path d="M96 105H184V126H96V105Z" fill="#DF2222"/>
<rect x="117" y="126" width="115" height="21" fill="#FF8C62"/>
<path d="M0 152C0 149.239 2.23858 147 5 147H343C345.761 147 348 149.239 348 152V176H33.5V402H200V295.5C200 292.739 202.239 290.5 205 290.5H272C274.761 290.5 277 292.739 277 295.5V402H343C345.761 402 348 404.239 348 407V435H5C2.23858 435 0 432.761 0 430V176V152Z" fill="white"/>
<rect x="251" y="350" width="16" height="16" rx="8" fill="#FF8C62"/>
</svg>
